<svg class="w-5 h-5 md:w-6 md:h-6" viewBox="0 0 22 24" fill="none"
    xmlns="http://www.w3.org/2000/svg">
    <path
        d="M15.0002 22.0268V18.1568C15.0377 17.68 14.9733 17.2006 14.8112 16.7506C14.6491 16.3006 14.3931 15.8902 14.0602 15.5468C17.2002 15.1968 20.5002 14.0068 20.5002 8.54679C20.4999 7.15062 19.9629 5.80799 19.0002 4.79679C19.4561 3.5753 19.4238 2.22514 18.9102 1.02679C18.9102 1.02679 17.7302 0.676793 15.0002 2.50679C12.7082 1.88561 10.2922 1.88561 8.0002 2.50679C5.2702 0.676793 4.0902 1.02679 4.0902 1.02679C3.57657 2.22514 3.54434 3.5753 4.0002 4.79679C3.03033 5.81549 2.49272 7.17026 2.5002 8.57679C2.5002 13.9968 5.8002 15.1868 8.9402 15.5768C8.6112 15.9168 8.35746 16.3222 8.19551 16.7667C8.03355 17.2112 7.96701 17.6849 8.0002 18.1568V22.0268M8.0002 19.0268C3.0002 20.5268 3.0002 16.5268 1.0002 16.0268L8.0002 19.0268Z"
        stroke="black" stroke-width="2" stroke-linecap="round" stroke-linejoin="round"></path>
</svg>